<?xml version="1.0" encoding="UTF-8"?>
<svg id="Layer_1" xmlns="http://www.w3.org/2000/svg" version="1.1" viewBox="0 0 47 37">
  <!-- Generator: Adobe Illustrator 29.6.1, SVG Export Plug-In . SVG Version: 2.1.1 Build 9)  -->
  <defs>
    <style>
      .st0 {
        fill: #f5f5f5;
      }
    </style>
  </defs>
  <path class="st0" d="M39.5,20.6l.2-.3c.9-1.1.9-2.6,0-3.6l-.2-.3.2-.3c.6-1.2.2-2.7-.9-3.5l-.3-.2v-.4c.3-1.3-.5-2.7-1.8-3.1h-.4c0-.1,0-.5,0-.5-.1-1.4-1.2-2.4-2.6-2.6h-.4s-.1-.4-.1-.4c-.4-1.1-1.5-1.9-2.7-1.9s-.3,0-.5,0h-.4c0,0-.2-.2-.2-.2-.5-.8-1.4-1.2-2.3-1.2s-.8,0-1.2.3l-.3.2-.3-.2c-.5-.4-1.2-.7-1.8-.7s-1.3.2-1.8.7l-.3.2-.3-.2c-.4-.2-.8-.3-1.2-.3-.9,0-1.8.4-2.3,1.2l-.2.3h-.4c-.2,0-.3-.1-.5-.1-1.2,0-2.2.7-2.7,1.9v.4c-.1,0-.5,0-.5,0-1.4.1-2.4,1.2-2.6,2.6v.4s-.4.1-.4.1c-1.3.5-2,1.8-1.8,3.1v.4c0,0-.2.2-.2.2-1.1.8-1.5,2.3-.9,3.5l.2.3-.2.3c-.9,1.1-.9,2.6,0,3.6l.2.3-.2.3c-.6,1.2-.2,2.7.9,3.5l.3.2v.4c-.3,1.3.5,2.7,1.8,3.1h.4c0,.1,0,.5,0,.5.1,1.4,1.2,2.4,2.6,2.6h.4s.1.4.1.4c.4,1.1,1.5,1.9,2.7,1.9s.3,0,.5,0h.4c0,0,.2.2.2.2.5.8,1.4,1.2,2.3,1.2s.8,0,1.2-.3l.3-.2.3.2c.5.4,1.2.7,1.8.7s1.3-.2,1.8-.7l.3-.2.3.2c.4.2.8.3,1.2.3.9,0,1.8-.4,2.3-1.2l.2-.3h.4c.2,0,.3.1.5.1,1.2,0,2.2-.7,2.7-1.9v-.4c.1,0,.5,0,.5,0,1.4-.1,2.4-1.2,2.6-2.6v-.4s.4-.1.4-.1c1.3-.5,2-1.8,1.8-3.1v-.4c0,0,.2-.2.2-.2,1.1-.8,1.5-2.3.9-3.5l-.2-.3ZM39.4,17c.7.9.7,2.1,0,3h0c0,.1-.2-.3-.2-.3-.3-.8-.3-1.6,0-2.4l.2-.4h0ZM37.7,23.8v.7c.1,0-.5.4-.5.4-.8.6-1.3,1.4-1.4,2.4v.7c0,0-.7.2-.7.2-.9.3-1.6,1.1-2,2l-.2.7h-.7c-1,.2-1.8.7-2.4,1.5l-.4.6h-.7c-.2-.2-.4-.2-.6-.2-.8,0-1.5.3-2.1.8l-.5.5-.6-.3c-.4-.2-.9-.3-1.4-.3s-.9.1-1.4.3l-.6.3-.5-.5c-.6-.5-1.3-.8-2.1-.8s-.4,0-.6,0h-.7c0,.1-.4-.5-.4-.5-.6-.8-1.4-1.3-2.4-1.4h-.7c0,0-.2-.7-.2-.7-.3-.9-1.1-1.6-2-2l-.7-.2v-.7c-.2-1-.7-1.8-1.5-2.4l-.6-.4v-.7c.3-1,0-1.9-.6-2.7l-.5-.5.3-.6c.4-.9.4-1.9,0-2.8l-.3-.6.5-.5c.6-.7.9-1.7.7-2.7v-.7c-.1,0,.5-.4.5-.4.8-.6,1.3-1.4,1.4-2.4v-.7c0,0,.7-.2.7-.2.9-.3,1.6-1.1,2-2l.2-.7h.7c1-.2,1.8-.7,2.4-1.5l.4-.6h.7c.2.2.4.2.6.2.8,0,1.5-.3,2.1-.8l.5-.5.6.3c.4.2.9.3,1.4.3s.9-.1,1.4-.3l.6-.3.5.5c.6.5,1.3.8,2.1.8s.4,0,.6,0h.7c0-.1.4.5.4.5.6.8,1.4,1.3,2.4,1.4h.7c0,0,.2.7.2.7.3.9,1.1,1.6,2,2l.7.2v.7c.2,1,.7,1.8,1.5,2.4l.6.4v.7c-.3,1,0,1.9.6,2.7l.5.5-.3.6c-.4.9-.4,1.9,0,2.8l.3.6-.5.5c-.6.7-.9,1.7-.7,2.7ZM38.4,12.9c.9.7,1.3,1.9.8,2.9h0c0,.1-.3-.2-.3-.2-.5-.6-.8-1.5-.6-2.3v-.5c0,0,.2,0,.2,0ZM36.5,9.3c1.1.4,1.7,1.5,1.5,2.6h0c0,.1-.4-.1-.4-.1-.7-.5-1.1-1.2-1.2-2.1v-.5s0,0,0,0ZM33.6,6.2c1.1.1,2,1,2.1,2.1h0c0,.1-.5,0-.5,0-.8-.3-1.4-.9-1.7-1.7l-.2-.5h.1ZM30.1,4c.1,0,.3,0,.4,0,1,0,1.9.6,2.2,1.5h0c0,.1-.5,0-.5,0-.8,0-1.6-.5-2.1-1.2l-.3-.4h.1ZM26.1,2.8c.3-.1.6-.2,1-.2.8,0,1.5.4,1.9,1h0c0,.1-.5.2-.5.2-.2,0-.3,0-.5,0-.7,0-1.3-.2-1.8-.7l-.4-.3h.1ZM22,2.6c.4-.4,1-.5,1.5-.5s1.1.2,1.5.5h.1c0,0-.4.3-.4.3-.4.2-.8.3-1.2.3s-.8,0-1.2-.3l-.4-.2h.1ZM17.9,3.6c.4-.6,1.2-1,1.9-1,.3,0,.7,0,1,.2h.1c0,0-.4.4-.4.4-.5.4-1.2.7-1.8.7s-.3,0-.5,0h-.5c0,0,0-.2,0-.2ZM14.3,5.5c.3-.9,1.2-1.5,2.2-1.5.1,0,.3,0,.4,0h.1s-.3.4-.3.4c-.5.7-1.2,1.1-2.1,1.2h-.5s0,0,0,0ZM11.2,8.4c.1-1.1,1-2,2.1-2.1h.1s-.2.4-.2.4c-.3.8-.9,1.4-1.7,1.7l-.5.2h0ZM9,11.9c-.2-1.1.4-2.2,1.5-2.6h.1c0,0,0,.4,0,.4,0,.8-.5,1.6-1.2,2.1l-.4.3h0ZM7.8,15.9c-.5-1-.1-2.3.8-2.9h.1c0,0,0,.4,0,.4.1.8,0,1.7-.6,2.3l-.3.4h0ZM7.6,20c-.7-.9-.7-2.1,0-3h0c0-.1.2.3.2.3.3.8.3,1.6,0,2.4l-.2.4h0ZM8.6,24.1c-.9-.7-1.3-1.9-.8-2.9h0c0-.1.3.2.3.2.5.6.8,1.5.6,2.3v.5c0,0-.2,0-.2,0ZM10.5,27.7c-1.1-.4-1.7-1.5-1.5-2.6h0c0-.1.4.1.4.1.7.5,1.1,1.2,1.2,2.1v.5s0,0,0,0ZM13.4,30.8c-1.1-.1-2-1-2.1-2.1h0c0-.1.5,0,.5,0,.8.3,1.4.9,1.7,1.7l.2.5h-.1ZM16.9,33c-.1,0-.3,0-.4,0-1,0-1.9-.6-2.2-1.5h0c0-.1.5,0,.5,0,.8,0,1.6.5,2.1,1.2l.3.4h-.1ZM20.9,34.2c-.3.1-.6.2-1,.2-.8,0-1.5-.4-1.9-1h0c0-.1.5-.2.5-.2.2,0,.3,0,.5,0,.7,0,1.3.2,1.8.7l.4.3h-.1ZM25,34.4c-.4.4-1,.5-1.5.5s-1.1-.2-1.5-.5h-.1c0,0,.4-.3.4-.3.4-.2.8-.3,1.2-.3s.8,0,1.2.3l.4.2h-.1ZM29.1,33.4c-.4.6-1.2,1-1.9,1s-.7,0-1-.2h-.1c0,0,.4-.4.4-.4.5-.4,1.2-.7,1.8-.7s.3,0,.5,0h.5c0,0,0,.2,0,.2ZM32.7,31.5c-.3.9-1.2,1.5-2.2,1.5s-.3,0-.4,0h-.1s.3-.4.3-.4c.5-.7,1.2-1.1,2.1-1.2h.5s0,0,0,0ZM35.8,28.6c-.1,1.1-1,2-2.1,2.1h-.1s.2-.4.2-.4c.3-.8.9-1.4,1.7-1.7l.5-.2h0ZM38,25.1c.2,1.1-.4,2.2-1.5,2.6h-.1c0,0,0-.4,0-.4,0-.8.5-1.6,1.2-2.1l.4-.3h0ZM38.4,24.1h-.1c0,0,0-.4,0-.4-.1-.8,0-1.7.6-2.3l.3-.4h0c.5,1.2.1,2.4-.8,3.1Z"/>
</svg>