<?xml version="1.0" encoding="UTF-8"?>
<svg id="Layer_1" xmlns="http://www.w3.org/2000/svg" xmlns:xlink="http://www.w3.org/1999/xlink" version="1.1" viewBox="0 0 512 512">
  <!-- Generator: Adobe Illustrator 29.6.1, SVG Export Plug-In . SVG Version: 2.1.1 Build 9)  -->
  <defs>
    <style>
      .st0 {
        fill: #a99bb3;
      }

      .st1 {
        fill: url(#sunnySet1);
      }

      .st2 {
        fill: #4a5a72;
      }

      .st3 {
        fill: #f5f5f5;
      }

      .st4 {
        fill: url(#sunnySet);
      }
    </style>
    <linearGradient id="sunnySet" x1="723.2" y1="543.4" x2="723.2" y2="305.6" gradientUnits="userSpaceOnUse">
      <stop offset="0" stop-color="#b64a43"/>
      <stop offset="1" stop-color="#c047b6"/>
    </linearGradient>
    <linearGradient id="sunnySet1" data-name="sunnySet" x1="751.2" y1="305.6" x2="751.2" y2="49" xlink:href="#sunnySet"/>
  </defs>
  <g>
    <path class="st2" d="M-471.3,74.3h223.5l-164.3,245.6h-223.5l164.3-245.6Z"/>
    <path class="st0" d="M-461.5,342.6l-63.6,95.1h234.1L-126.7,192.1h-172.8l-100.7,150.5h-61.3Z"/>
  </g>
  <path class="st4" d="M652.1,449.4l2.2-93.7-38.3-21.7,66.9-28.4,32.5,26.1-2.6,91.2,44,16.9.6-84.2-29-21.7,57.7-28.4,32.5,26.1-1.9,93.4,13.4,59.3-90.9,59-94.4-48.1,50.7-26.8-43.7-19.1ZM714.6,473.6l56.7,32.8-14.3-56.4-42.4,23.6Z"/>
  <path class="st1" d="M717.5,160.2l50.7-28.4,60.3,40.2v23.9l-54.2,12.4,79.4,70.8-61.8,26.5-74-88.6-.6,38.9,29,21.7-57.7,28.1-32.2-25.8,1.6-172.8-9.2-55.2,8.6-2.9,20.4,36.3,42.4-22-2.6,96.9ZM717.9,208.1l44.3-17.2-44-15.9-.3,33.2Z"/>
  <path class="st3" d="M477.8,285.2l3.3-4c12.2-14.6,12.2-35.8,0-50.4l-3.3-4,2.2-4.7c8-17.3,2.5-37.7-13-48.7l-4.2-3,.9-5.1c3.2-18.7-7.4-37.1-25.2-43.7l-4.9-1.8-.5-5.2c-1.7-18.9-16.7-33.9-35.6-35.6l-5.2-.5-1.8-4.9c-5.8-15.7-20.7-25.8-36.9-25.8s-4.5.2-6.7.6l-5.1.9-3-4.2c-7.6-10.7-19.7-16.7-32.2-16.7s-11.2,1.2-16.5,3.6l-4.7,2.2-4-3.3c-7.3-6.1-16.3-9.1-25.2-9.1s-17.9,3-25.2,9.1l-4,3.3-4.7-2.2c-5.3-2.5-10.9-3.6-16.5-3.6-12.5,0-24.6,5.9-32.2,16.7l-3,4.2-5.1-.9c-2.3-.4-4.5-.6-6.7-.6-16.3,0-31.2,10.1-36.9,25.8l-1.8,4.9-5.2.5c-18.9,1.7-33.9,16.7-35.6,35.6l-.5,5.2-4.9,1.8c-17.8,6.6-28.4,24.9-25.2,43.7l.9,5.1-4.2,3c-15.5,11-21,31.4-13,48.7l2.2,4.7-3.3,4c-12.2,14.6-12.2,35.8,0,50.4l3.3,4-2.2,4.7c-8,17.3-2.5,37.7,13,48.7l4.2,3-.9,5.1c-3.2,18.7,7.4,37.1,25.2,43.7l4.9,1.8.5,5.2c1.7,18.9,16.7,33.9,35.6,35.6l5.2.5,1.8,4.9c5.8,15.7,20.7,25.8,36.9,25.8s4.5-.2,6.7-.6l5.1-.9,3,4.2c7.6,10.7,19.7,16.7,32.2,16.7s11.2-1.2,16.5-3.6l4.7-2.2,4,3.3c7.3,6.1,16.3,9.1,25.2,9.1s17.9-3,25.2-9.1l4-3.3,4.7,2.2c5.3,2.5,10.9,3.6,16.5,3.6,12.5,0,24.6-5.9,32.2-16.7l3-4.2,5.1.9c2.3.4,4.5.6,6.7.6,16.3,0,31.2-10.1,36.9-25.8l1.8-4.9,5.2-.5c18.9-1.7,33.9-16.7,35.6-35.6l.5-5.2,4.9-1.8c17.8-6.6,28.4-24.9,25.2-43.7l-.9-5.1,4.2-3c15.5-11,21-31.4,13-48.7l-2.2-4.7ZM476,235c10.1,12.2,10.1,29.8,0,42l-1.3,1.6-2.8-6.1c-4.8-10.5-4.8-22.6,0-33l2.8-6.1,1.3,1.6ZM453.8,329l1.7,9.7-8,5.7c-11,7.8-18,19.9-19.3,33.4l-.9,9.8-9.2,3.4c-12.7,4.7-22.6,14.6-27.3,27.3l-3.4,9.2-9.8.9c-13.4,1.2-25.6,8.2-33.4,19.3l-5.7,8-9.7-1.7c-2.6-.4-5.2-.7-7.8-.7-10.7,0-21.2,3.8-29.4,10.6l-7.5,6.3-8.9-4.1c-6.1-2.8-12.6-4.2-19.3-4.2s-13.2,1.4-19.3,4.2l-8.9,4.1-7.5-6.3c-8.2-6.9-18.7-10.6-29.4-10.6s-5.2.2-7.8.7l-9.7,1.7-5.7-8c-7.8-11-19.9-18-33.4-19.3l-9.8-.9-3.4-9.2c-4.7-12.7-14.6-22.6-27.3-27.3l-9.2-3.4-.9-9.8c-1.2-13.4-8.2-25.6-19.3-33.4l-8-5.7,1.7-9.7c2.3-13.3-1.3-26.9-10-37.2l-6.3-7.5,4.1-8.9c5.7-12.2,5.7-26.3,0-38.5l-4.1-8.9,6.3-7.5c8.6-10.4,12.3-23.9,10-37.2l-1.7-9.7,8-5.7c11-7.8,18-19.9,19.3-33.4l.9-9.8,9.2-3.4c12.7-4.7,22.6-14.6,27.3-27.3l3.4-9.2,9.8-.9c13.4-1.2,25.6-8.2,33.4-19.3l5.7-8,9.7,1.7c2.6.4,5.2.7,7.8.7,10.7,0,21.2-3.8,29.4-10.6l7.5-6.3,8.9,4.1c6.1,2.8,12.6,4.2,19.3,4.2s13.2-1.4,19.3-4.2l8.9-4.1,7.5,6.3c8.2,6.9,18.7,10.6,29.4,10.6s5.2-.2,7.8-.7l9.7-1.7,5.7,8c7.8,11,19.9,18,33.4,19.3l9.8.9,3.4,9.2c4.7,12.7,14.6,22.6,27.3,27.3l9.2,3.4.9,9.8c1.2,13.4,8.2,25.6,19.3,33.4l8,5.7-1.7,9.7c-2.3,13.3,1.3,26.9,10,37.2l6.3,7.5-4.1,8.9c-5.7,12.2-5.7,26.3,0,38.5l4.1,8.9-6.3,7.5c-8.6,10.4-12.3,23.9-10,37.2ZM463.1,178.8c12.9,9.1,17.5,26.2,10.9,40.6l-.9,1.9-4.3-5.2c-7.4-8.9-10.5-20.5-8.6-31.9l1.1-6.6,1.7,1.2ZM436.1,127.8c14.9,5.5,23.7,20.8,21,36.4l-.4,2-5.5-3.9c-9.4-6.7-15.5-17.1-16.5-28.6l-.6-6.7,2,.7ZM396.7,85.5c15.8,1.4,28.3,13.9,29.7,29.7l.2,2.1-6.3-2.3c-10.8-4-19.4-12.5-23.4-23.4l-2.3-6.3,2.1.2ZM347.8,54.9c1.9-.3,3.7-.5,5.6-.5,13.7,0,26,8.6,30.8,21.5l.7,2-6.7-.6c-11.5-1-22-7.1-28.6-16.5l-3.9-5.5,2-.4ZM292.7,38c4.4-2,9-3,13.7-3,10.7,0,20.7,5.2,26.8,13.9l1.2,1.7-6.6,1.1c-2.2.4-4.5.6-6.7.6-9.1,0-18.1-3.2-25.2-9.1l-5.2-4.3,1.9-.9ZM235,36c5.9-4.9,13.3-7.6,21-7.6s15.1,2.7,21,7.6l1.6,1.3-6.1,2.8c-5.2,2.4-10.9,3.6-16.5,3.6s-11.3-1.2-16.5-3.6l-6.1-2.8,1.6-1.3ZM178.8,48.9c6.1-8.7,16.2-13.9,26.8-13.9,4.8,0,9.4,1,13.7,3l1.9.9-5.2,4.3c-7.1,5.9-16.1,9.1-25.2,9.1s-4.5-.2-6.7-.6l-6.6-1.1,1.2-1.7ZM127.8,75.9c4.7-12.9,17.1-21.5,30.8-21.5,1.9,0,3.8.2,5.6.5l2,.4-3.9,5.5c-6.7,9.4-17.1,15.5-28.6,16.5l-6.7.6.7-2ZM85.5,115.3c1.4-15.8,13.9-28.3,29.7-29.7l2.1-.2-2.3,6.3c-4,10.8-12.5,19.4-23.4,23.4l-6.3,2.3.2-2.1ZM54.9,164.2c-2.7-15.6,6.1-30.9,21-36.4l2-.7-.6,6.7c-1,11.5-7.1,22-16.5,28.6l-5.5,3.9-.4-2ZM38,219.3c-6.6-14.4-2.1-31.5,10.9-40.6l1.7-1.2,1.1,6.6c2,11.4-1.2,23-8.6,31.9l-4.3,5.2-.9-1.9ZM36,277c-10.1-12.2-10.1-29.8,0-42l1.3-1.6,2.8,6.1c4.8,10.5,4.8,22.6,0,33l-2.8,6.1-1.3-1.6ZM48.9,333.2c-12.9-9.1-17.5-26.2-10.9-40.6l.9-1.9,4.3,5.2c7.4,8.9,10.5,20.5,8.6,31.9l-1.1,6.6-1.7-1.2ZM75.9,384.2c-14.9-5.5-23.7-20.8-21-36.4l.4-2,5.5,3.9c9.4,6.7,15.5,17.1,16.5,28.6l.6,6.7-2-.7ZM115.3,426.5c-15.8-1.4-28.3-13.9-29.7-29.7l-.2-2.1,6.3,2.3c10.8,4,19.4,12.5,23.4,23.4l2.3,6.3-2.1-.2ZM164.2,457.1c-1.9.3-3.7.5-5.6.5-13.7,0-26-8.6-30.8-21.5l-.7-2,6.7.6c11.5,1,22,7.1,28.6,16.5l3.9,5.5-2,.4ZM219.3,474c-4.4,2-9,3-13.7,3-10.7,0-20.7-5.2-26.8-13.9l-1.2-1.7,6.6-1.1c2.2-.4,4.5-.6,6.7-.6,9.1,0,18.1,3.2,25.2,9.1l5.2,4.3-1.9.9ZM277,476c-5.9,4.9-13.3,7.6-21,7.6s-15.1-2.7-21-7.6l-1.6-1.3,6.1-2.8c5.2-2.4,10.9-3.6,16.5-3.6s11.3,1.2,16.5,3.6l6.1,2.8-1.6,1.3ZM333.2,463.1c-6.1,8.7-16.2,13.9-26.8,13.9s-9.4-1-13.7-3l-1.9-.9,5.2-4.3c7.1-5.9,16.1-9.1,25.2-9.1s4.5.2,6.7.6l6.6,1.1-1.2,1.7ZM384.2,436.1c-4.7,12.9-17.1,21.5-30.8,21.5s-3.8-.2-5.6-.5l-2-.4,3.9-5.5c6.7-9.4,17.1-15.5,28.6-16.5l6.7-.6-.7,2ZM426.5,396.7c-1.4,15.8-13.9,28.3-29.7,29.7l-2.1.2,2.3-6.3c4-10.8,12.5-19.4,23.4-23.4l6.3-2.3-.2,2.1ZM457.1,347.8c2.7,15.6-6.1,30.9-21,36.4l-2,.7.6-6.7c1-11.5,7.1-22,16.5-28.6l5.5-3.9.4,2ZM463.1,333.2l-1.7,1.2-1.1-6.6c-2-11.4,1.2-23,8.6-31.9l4.3-5.2.9,1.9c6.6,14.4,2.1,31.5-10.9,40.6Z"/>
  <path class="st3" d="M392.3,274l2-2.5c7.5-9,7.5-22,0-31l-2-2.5,1.3-2.9c4.9-10.6,1.5-23.2-8-29.9l-2.6-1.8.5-3.1c2-11.5-4.5-22.8-15.5-26.8l-3-1.1-.3-3.2c-1.1-11.6-10.3-20.9-21.9-21.9l-3.2-.3-1.1-3c-3.5-9.6-12.7-15.9-22.7-15.9s-2.8.1-4.1.4l-3.1.5-1.8-2.6c-4.7-6.6-12.1-10.3-19.8-10.3s-6.9.7-10.1,2.2l-2.9,1.3-2.5-2c-4.5-3.7-10-5.6-15.5-5.6s-11,1.9-15.5,5.6l-2.5,2-2.9-1.3c-3.3-1.5-6.7-2.2-10.1-2.2-7.7,0-15.1,3.7-19.8,10.3l-1.8,2.6-3.1-.5c-1.4-.2-2.8-.4-4.1-.4-10,0-19.2,6.2-22.7,15.9l-1.1,3-3.2.3c-11.6,1.1-20.9,10.3-21.9,21.9l-.3,3.2-3,1.1c-11,4-17.5,15.3-15.5,26.8l.5,3.1-2.6,1.8c-9.6,6.7-12.9,19.3-8,29.9l1.3,2.9-2,2.5c-7.5,9-7.5,22,0,31l2,2.5-1.3,2.9c-4.9,10.6-1.5,23.2,8,29.9l2.6,1.8-.5,3.1c-2,11.5,4.5,22.8,15.5,26.8l3,1.1.3,3.2c1.1,11.6,10.3,20.9,21.9,21.9l3.2.3,1.1,3c3.5,9.6,12.7,15.9,22.7,15.9s2.8-.1,4.1-.4l3.1-.5,1.8,2.6c4.7,6.6,12.1,10.3,19.8,10.3s6.9-.7,10.1-2.2l2.9-1.3,2.5,2c4.5,3.7,10,5.6,15.5,5.6s11-1.9,15.5-5.6l2.5-2,2.9,1.3c3.3,1.5,6.7,2.2,10.1,2.2,7.7,0,15.1-3.7,19.8-10.3l1.8-2.6,3.1.5c1.4.2,2.8.4,4.1.4,10,0,19.2-6.2,22.7-15.9l1.1-3,3.2-.3c11.6-1.1,20.9-10.3,21.9-21.9l.3-3.2,3-1.1c11-4,17.5-15.3,15.5-26.8l-.5-3.1,2.6-1.8c9.6-6.7,12.9-19.3,8-29.9l-1.3-2.9ZM391.3,243.1c6.2,7.5,6.2,18.3,0,25.8l-.8,1-1.7-3.7c-3-6.4-3-13.9,0-20.3l1.7-3.7.8,1ZM377.6,300.9l1,5.9-4.9,3.5c-6.8,4.8-11.1,12.3-11.8,20.5l-.5,6-5.7,2.1c-7.8,2.9-13.9,9-16.8,16.8l-2.1,5.7-6,.5c-8.3.8-15.7,5.1-20.5,11.8l-3.5,4.9-5.9-1c-1.6-.3-3.2-.4-4.8-.4-6.6,0-13,2.3-18.1,6.5l-4.6,3.9-5.5-2.5c-3.7-1.7-7.7-2.6-11.8-2.6s-8.1.9-11.8,2.6l-5.5,2.5-4.6-3.9c-5.1-4.2-11.5-6.5-18.1-6.5s-3.2.1-4.8.4l-5.9,1-3.5-4.9c-4.8-6.8-12.3-11.1-20.5-11.8l-6-.5-2.1-5.7c-2.9-7.8-9-13.9-16.8-16.8l-5.7-2.1-.5-6c-.8-8.3-5.1-15.7-11.8-20.5l-4.9-3.5,1-5.9c1.4-8.2-.8-16.5-6.1-22.9l-3.9-4.6,2.5-5.5c3.5-7.5,3.5-16.2,0-23.7l-2.5-5.5,3.9-4.6c5.3-6.4,7.5-14.7,6.1-22.9l-1-5.9,4.9-3.5c6.8-4.8,11.1-12.3,11.8-20.5l.5-6,5.7-2.1c7.8-2.9,13.9-9,16.8-16.8l2.1-5.7,6-.5c8.3-.8,15.7-5.1,20.5-11.8l3.5-4.9,5.9,1c1.6.3,3.2.4,4.8.4,6.6,0,13-2.3,18.1-6.5l4.6-3.9,5.5,2.5c3.7,1.7,7.7,2.6,11.8,2.6s8.1-.9,11.8-2.6l5.5-2.5,4.6,3.9c5.1,4.2,11.5,6.5,18.1,6.5s3.2-.1,4.8-.4l5.9-1,3.5,4.9c4.8,6.8,12.3,11.1,20.5,11.8l6,.5,2.1,5.7c2.9,7.8,9,13.9,16.8,16.8l5.7,2.1.5,6c.8,8.3,5.1,15.7,11.8,20.5l4.9,3.5-1,5.9c-1.4,8.2.8,16.5,6.1,22.9l3.9,4.6-2.5,5.5c-3.5,7.5-3.5,16.2,0,23.7l2.5,5.5-3.9,4.6c-5.3,6.4-7.5,14.7-6.1,22.9ZM383.3,208.5c8,5.6,10.8,16.1,6.7,25l-.5,1.2-2.6-3.2c-4.5-5.5-6.5-12.6-5.3-19.6l.7-4.1,1,.7ZM366.7,177.2c9.1,3.4,14.6,12.8,12.9,22.4l-.2,1.3-3.4-2.4c-5.8-4.1-9.5-10.5-10.2-17.6l-.4-4.1,1.2.4ZM342.5,151.2c9.7.9,17.4,8.6,18.3,18.3v1.3c.1,0-3.8-1.4-3.8-1.4-6.7-2.5-11.9-7.7-14.4-14.4l-1.4-3.9h1.3ZM312.5,132.4c1.1-.2,2.3-.3,3.5-.3,8.4,0,16,5.3,18.9,13.2l.4,1.2-4.1-.4c-7.1-.6-13.5-4.4-17.6-10.2l-2.4-3.4,1.3-.2ZM278.5,122c2.7-1.2,5.5-1.9,8.5-1.9,6.6,0,12.7,3.2,16.5,8.6l.7,1-4.1.7c-1.4.2-2.8.4-4.1.4-5.6,0-11.1-2-15.5-5.6l-3.2-2.6,1.2-.5ZM243.1,120.7c3.6-3,8.2-4.7,12.9-4.7s9.3,1.7,12.9,4.7l1,.8-3.7,1.7c-3.2,1.5-6.7,2.2-10.2,2.2s-6.9-.7-10.2-2.2l-3.7-1.7,1-.8ZM208.5,128.7c3.8-5.4,9.9-8.6,16.5-8.6,2.9,0,5.8.6,8.5,1.9l1.2.5-3.2,2.6c-4.4,3.7-9.9,5.6-15.5,5.6s-2.8-.1-4.1-.4l-4.1-.7.7-1ZM177.2,145.3c2.9-7.9,10.5-13.2,18.9-13.2,1.1,0,2.3,0,3.5.3l1.3.2-2.4,3.4c-4.1,5.8-10.5,9.5-17.6,10.2l-4.1.4.4-1.2ZM151.2,169.5c.9-9.7,8.6-17.4,18.3-18.3h1.3c0-.1-1.4,3.8-1.4,3.8-2.5,6.7-7.7,11.9-14.4,14.4l-3.9,1.4v-1.3ZM132.4,199.5c-1.7-9.6,3.8-19,12.9-22.4l1.2-.4-.4,4.1c-.6,7.1-4.4,13.5-10.2,17.6l-3.4,2.4-.2-1.3ZM122,233.5c-4.1-8.8-1.3-19.3,6.7-25l1-.7.7,4.1c1.2,7-.7,14.2-5.3,19.6l-2.6,3.2-.5-1.2ZM120.7,268.9c-6.2-7.5-6.2-18.3,0-25.8l.8-1,1.7,3.7c3,6.4,3,13.9,0,20.3l-1.7,3.7-.8-1ZM128.7,303.5c-8-5.6-10.8-16.1-6.7-25l.5-1.2,2.6,3.2c4.5,5.5,6.5,12.6,5.3,19.6l-.7,4.1-1-.7ZM145.3,334.8c-9.1-3.4-14.6-12.8-12.9-22.4l.2-1.3,3.4,2.4c5.8,4.1,9.5,10.5,10.2,17.6l.4,4.1-1.2-.4ZM169.5,360.8c-9.7-.9-17.4-8.6-18.3-18.3v-1.3c-.1,0,3.8,1.4,3.8,1.4,6.7,2.5,11.9,7.7,14.4,14.4l1.4,3.9h-1.3ZM199.5,379.6c-1.1.2-2.3.3-3.5.3-8.4,0-16-5.3-18.9-13.2l-.4-1.2,4.1.4c7.1.6,13.5,4.4,17.6,10.2l2.4,3.4-1.3.2ZM233.5,390c-2.7,1.2-5.5,1.9-8.5,1.9-6.6,0-12.7-3.2-16.5-8.5l-.7-1,4.1-.7c1.4-.2,2.8-.4,4.1-.4,5.6,0,11.1,2,15.5,5.6l3.2,2.6-1.2.5ZM268.9,391.3c-3.6,3-8.2,4.7-12.9,4.7s-9.3-1.7-12.9-4.7l-1-.8,3.7-1.7c3.2-1.5,6.7-2.2,10.2-2.2s6.9.7,10.2,2.2l3.7,1.7-1,.8ZM303.5,383.3c-3.8,5.4-9.9,8.6-16.5,8.6s-5.8-.6-8.5-1.9l-1.2-.5,3.2-2.6c4.4-3.7,9.9-5.6,15.5-5.6s2.8.1,4.1.4l4.1.7-.7,1ZM334.8,366.7c-2.9,7.9-10.5,13.2-18.9,13.2s-2.3,0-3.5-.3l-1.3-.2,2.4-3.4c4.1-5.8,10.5-9.5,17.6-10.2l4.1-.4-.4,1.2ZM360.8,342.5c-.9,9.7-8.6,17.4-18.3,18.3h-1.3c0,.1,1.4-3.8,1.4-3.8,2.5-6.7,7.7-11.9,14.4-14.4l3.9-1.4v1.3ZM379.6,312.5c1.7,9.6-3.8,19-12.9,22.4l-1.2.4.4-4.1c.6-7.1,4.4-13.5,10.2-17.6l3.4-2.4.2,1.3ZM383.3,303.5l-1,.7-.7-4.1c-1.2-7,.7-14.2,5.3-19.6l2.6-3.2.5,1.2c4.1,8.8,1.3,19.3-6.7,25Z"/>
</svg>