<?xml version="1.0" encoding="UTF-8"?>
<svg xmlns="http://www.w3.org/2000/svg" xmlns:xlink="http://www.w3.org/1999/xlink" version="1.1" viewBox="0 0 512 512">
  <!-- Generator: Adobe Illustrator 29.6.1, SVG Export Plug-In . SVG Version: 2.1.1 Build 9)  -->
  <defs>
    <style>
      .st0 {
        mask: url(#mask);
      }

      .st1 {
        fill: #fdfcfa;
      }

      .st2, .st3 {
        fill: #111;
      }

      .st4 {
        fill: #a99bb3;
      }

      .st5 {
        mask: url(#mask-1);
      }

      .st6 {
        fill: url(#sunnySet1);
      }

      .st7 {
        fill: url(#sunnySet2);
      }

      .st8 {
        fill: #4a5a72;
      }

      .st9 {
        fill: url(#linear-gradient1);
      }

      .st9, .st10 {
        stroke: #8b5b7b;
        stroke-miterlimit: 10;
      }

      .st10 {
        fill: url(#linear-gradient);
      }

      .st11 {
        fill: url(#sunnySet);
      }

      .st12 {
        fill: #161618;
      }

      .st3 {
        font-family: WorkSans-Medium, 'Work Sans';
        font-size: 30.1px;
        font-weight: 500;
      }
    </style>
    <mask id="mask" x="-532" y="0" width="512" height="512" maskUnits="userSpaceOnUse">
      <g id="mask0_907_31">
        <rect class="st12" x="-532" width="512" height="512" rx="80" ry="80"/>
      </g>
    </mask>
    <mask id="mask-1" x="690.1" y="526.8" width="512" height="512" maskUnits="userSpaceOnUse">
      <g id="mask0_907_311" data-name="mask0_907_31">
        <rect class="st12" x="690.1" y="526.8" width="512" height="512" rx="80" ry="80"/>
      </g>
    </mask>
    <path id="path" d="M-114.8,1005.4c-32.6-73.8.8-159.9,74.6-192.5,73.8-32.6,159.9.8,192.5,74.6,32.6,73.8-.8,159.9-74.6,192.5-73.8,32.6-159.9-.8-192.5-74.6Z"/>
    <linearGradient id="linear-gradient" x1="821" y1="999.4" x2="1071.1" y2="566.3" gradientUnits="userSpaceOnUse">
      <stop offset="0" stop-color="#b64a43"/>
      <stop offset="1" stop-color="#c047b6"/>
    </linearGradient>
    <linearGradient id="linear-gradient1" x1="680.3" y1="478" x2="930.3" y2="45" xlink:href="#linear-gradient"/>
    <linearGradient id="sunnySet" x1="946.1" y1="926.7" x2="946.1" y2="606.7" gradientUnits="userSpaceOnUse">
      <stop offset="0" stop-color="#b64a43"/>
      <stop offset="1" stop-color="#c047b6"/>
    </linearGradient>
    <linearGradient id="sunnySet1" data-name="sunnySet" x1="123.8" y1="322.5" x2="123.8" y2="84.7" xlink:href="#sunnySet"/>
    <linearGradient id="sunnySet2" data-name="sunnySet" x1="358.5" y1="460.3" x2="358.5" y2="203.6" xlink:href="#sunnySet"/>
  </defs>
  <g id="Layer_1">
    <g class="st0">
      <g>
        <path class="st8" d="M-365.1,69.4h223.5l-164.3,245.6h-223.5l164.3-245.6Z"/>
        <path class="st4" d="M-355.3,337.8l-63.6,95.1h234.1L-20.6,187.3h-172.8l-100.7,150.5h-61.3Z"/>
      </g>
    </g>
    <g class="st5">
      <g>
        <path class="st8" d="M857,596.2h223.5l-164.3,245.6h-223.5l164.3-245.6Z"/>
        <path class="st4" d="M866.7,864.6l-63.6,95.1h234.1l164.3-245.6h-172.8l-100.7,150.5h-61.3Z"/>
      </g>
    </g>
    <path class="st2" d="M677,964.6l2.1-2.5c7.6-9.1,7.6-22.3,0-31.4l-2.1-2.5,1.4-2.9c5-10.8,1.5-23.5-8.1-30.4l-2.6-1.9.6-3.2c2-11.7-4.6-23.1-15.7-27.2l-3-1.1-.3-3.2c-1.1-11.8-10.4-21.1-22.2-22.2l-3.2-.3-1.1-3c-3.6-9.8-12.9-16.1-23-16.1s-2.8.1-4.2.4l-3.2.6-1.9-2.6c-4.7-6.7-12.3-10.4-20.1-10.4s-7,.7-10.3,2.3l-2.9,1.4-2.5-2.1c-4.6-3.8-10.1-5.7-15.7-5.7s-11.2,1.9-15.7,5.7l-2.5,2.1-2.9-1.4c-3.3-1.5-6.8-2.3-10.3-2.3-7.8,0-15.3,3.7-20.1,10.4l-1.9,2.6-3.2-.6c-1.4-.2-2.8-.4-4.2-.4-10.1,0-19.4,6.3-23,16.1l-1.1,3-3.2.3c-11.8,1.1-21.1,10.4-22.2,22.2l-.3,3.2-3,1.1c-11.1,4.1-17.7,15.5-15.7,27.2l.6,3.2-2.6,1.9c-9.7,6.8-13.1,19.6-8.1,30.4l1.4,2.9-2.1,2.5c-7.6,9.1-7.6,22.3,0,31.4l2.1,2.5-1.4,2.9c-5,10.8-1.5,23.5,8.1,30.4l2.6,1.9-.6,3.2c-2,11.7,4.6,23.1,15.7,27.2l3,1.1.3,3.2c1.1,11.8,10.4,21.1,22.2,22.2l3.2.3,1.1,3c3.6,9.8,12.9,16.1,23,16.1s2.8-.1,4.2-.4l3.2-.6,1.9,2.6c4.7,6.7,12.3,10.4,20.1,10.4s7-.7,10.3-2.3l2.9-1.4,2.5,2.1c4.6,3.8,10.1,5.7,15.7,5.7s11.2-1.9,15.7-5.7l2.5-2.1,2.9,1.4c3.3,1.5,6.8,2.3,10.3,2.3,7.8,0,15.3-3.7,20.1-10.4l1.9-2.6,3.2.6c1.4.2,2.8.4,4.2.4,10.1,0,19.4-6.3,23-16.1l1.1-3,3.2-.3c11.8-1.1,21.1-10.4,22.2-22.2l.3-3.2,3-1.1c11.1-4.1,17.7-15.5,15.7-27.2l-.6-3.2,2.6-1.9c9.7-6.8,13.1-19.6,8.1-30.4l-1.4-2.9ZM676,933.3c6.3,7.6,6.3,18.6,0,26.2l-.8,1-1.8-3.8c-3-6.5-3-14.1,0-20.6l1.8-3.8.8,1ZM662.1,991.9l1,6-5,3.5c-6.9,4.8-11.3,12.4-12,20.8l-.6,6.1-5.7,2.1c-7.9,2.9-14.1,9.1-17,17l-2.1,5.7-6.1.6c-8.4.8-16,5.1-20.8,12l-3.5,5-6-1c-1.6-.3-3.2-.4-4.9-.4-6.7,0-13.2,2.4-18.3,6.6l-4.7,3.9-5.6-2.6c-3.8-1.8-7.8-2.6-12-2.6s-8.2.9-12,2.6l-5.6,2.6-4.7-3.9c-5.1-4.3-11.6-6.6-18.3-6.6s-3.3.1-4.9.4l-6,1-3.5-5c-4.8-6.9-12.4-11.3-20.8-12l-6.1-.6-2.1-5.7c-2.9-7.9-9.1-14.1-17-17l-5.7-2.1-.6-6.1c-.8-8.4-5.1-16-12-20.8l-5-3.5,1-6c1.4-8.3-.8-16.7-6.2-23.2l-3.9-4.7,2.6-5.6c3.5-7.6,3.5-16.4,0-24l-2.6-5.6,3.9-4.7c5.4-6.5,7.7-14.9,6.2-23.2l-1-6,5-3.5c6.9-4.8,11.3-12.4,12-20.8l.6-6.1,5.7-2.1c7.9-2.9,14.1-9.1,17-17l2.1-5.7,6.1-.6c8.4-.8,16-5.1,20.8-12l3.5-5,6,1c1.6.3,3.2.4,4.9.4,6.7,0,13.2-2.4,18.3-6.6l4.7-3.9,5.6,2.6c3.8,1.8,7.8,2.6,12,2.6s8.2-.9,12-2.6l5.6-2.6,4.7,3.9c5.1,4.3,11.6,6.6,18.3,6.6s3.3-.1,4.9-.4l6-1,3.5,5c4.8,6.9,12.4,11.3,20.8,12l6.1.6,2.1,5.7c2.9,7.9,9.1,14.1,17,17l5.7,2.1.6,6.1c.8,8.4,5.1,16,12,20.8l5,3.5-1,6c-1.4,8.3.8,16.7,6.2,23.2l3.9,4.7-2.6,5.6c-3.5,7.6-3.5,16.4,0,24l2.6,5.6-3.9,4.7c-5.4,6.5-7.7,14.9-6.2,23.2ZM667.9,898.2c8.1,5.7,10.9,16.3,6.8,25.3l-.5,1.2-2.7-3.2c-4.6-5.5-6.6-12.8-5.3-19.9l.7-4.1,1.1.7ZM651,866.5c9.3,3.4,14.8,12.9,13.1,22.7l-.2,1.3-3.4-2.4c-5.9-4.1-9.6-10.7-10.3-17.8l-.4-4.2,1.2.4ZM626.5,840.1c9.8.9,17.6,8.7,18.5,18.5v1.3c.1,0-3.8-1.4-3.8-1.4-6.8-2.5-12.1-7.8-14.6-14.6l-1.4-3.9h1.3ZM596,821.1c1.2-.2,2.3-.3,3.5-.3,8.5,0,16.2,5.4,19.2,13.4l.4,1.2-4.2-.4c-7.2-.7-13.7-4.4-17.8-10.3l-2.4-3.4,1.3-.2ZM561.6,810.5c2.7-1.3,5.6-1.9,8.6-1.9,6.6,0,12.9,3.2,16.7,8.7l.7,1.1-4.1.7c-1.4.2-2.8.4-4.2.4-5.7,0-11.3-2-15.7-5.7l-3.2-2.7,1.2-.5ZM525.7,809.2c3.7-3.1,8.3-4.7,13.1-4.7s9.4,1.7,13.1,4.7l1,.8-3.8,1.8c-3.3,1.5-6.8,2.3-10.3,2.3s-7-.8-10.3-2.3l-3.8-1.8,1-.8ZM490.6,817.3c3.8-5.4,10.1-8.7,16.7-8.7,3,0,5.9.6,8.6,1.9l1.2.5-3.2,2.7c-4.4,3.7-10,5.7-15.7,5.7s-2.8-.1-4.2-.4l-4.1-.7.7-1.1ZM458.9,834.2c2.9-8,10.7-13.4,19.2-13.4,1.2,0,2.3.1,3.5.3l1.3.2-2.4,3.4c-4.1,5.9-10.7,9.6-17.8,10.3l-4.2.4.4-1.2ZM432.5,858.7c.9-9.8,8.7-17.6,18.5-18.5h1.3c0-.1-1.4,3.8-1.4,3.8-2.5,6.8-7.8,12.1-14.6,14.6l-3.9,1.4v-1.3ZM413.4,889.2c-1.7-9.7,3.8-19.3,13.1-22.7l1.2-.4-.4,4.2c-.7,7.2-4.4,13.7-10.3,17.8l-3.4,2.4-.2-1.3ZM402.9,923.5c-4.1-9-1.3-19.6,6.8-25.3l1.1-.7.7,4.1c1.2,7.1-.7,14.4-5.3,19.9l-2.7,3.2-.5-1.2ZM401.6,959.5c-6.3-7.6-6.3-18.6,0-26.2l.8-1,1.8,3.8c3,6.5,3,14.1,0,20.6l-1.8,3.8-.8-1ZM409.7,994.6c-8.1-5.7-10.9-16.3-6.8-25.3l.5-1.2,2.7,3.2c4.6,5.5,6.6,12.8,5.3,19.9l-.7,4.1-1.1-.7ZM426.5,1026.3c-9.3-3.4-14.8-12.9-13.1-22.7l.2-1.3,3.4,2.4c5.9,4.1,9.6,10.7,10.3,17.8l.4,4.2-1.2-.4ZM451.1,1052.7c-9.8-.9-17.6-8.7-18.5-18.5v-1.3c-.1,0,3.8,1.4,3.8,1.4,6.8,2.5,12.1,7.8,14.6,14.6l1.4,3.9h-1.3ZM481.5,1071.7c-1.2.2-2.3.3-3.5.3-8.5,0-16.2-5.4-19.2-13.4l-.4-1.2,4.2.4c7.2.7,13.7,4.4,17.8,10.3l2.4,3.4-1.3.2ZM515.9,1082.3c-2.7,1.3-5.6,1.9-8.6,1.9-6.6,0-12.9-3.2-16.7-8.7l-.7-1.1,4.1-.7c1.4-.2,2.8-.4,4.2-.4,5.7,0,11.3,2,15.7,5.7l3.2,2.7-1.2.5ZM551.9,1083.6c-3.7,3.1-8.3,4.7-13.1,4.7s-9.4-1.7-13.1-4.7l-1-.8,3.8-1.8c3.3-1.5,6.8-2.3,10.3-2.3s7,.8,10.3,2.3l3.8,1.8-1,.8ZM586.9,1075.5c-3.8,5.4-10.1,8.7-16.7,8.7s-5.9-.6-8.6-1.9l-1.2-.5,3.2-2.7c4.4-3.7,10-5.7,15.7-5.7s2.8.1,4.2.4l4.1.7-.7,1.1ZM618.7,1058.6c-2.9,8-10.7,13.4-19.2,13.4s-2.3-.1-3.5-.3l-1.3-.2,2.4-3.4c4.1-5.9,10.7-9.6,17.8-10.3l4.2-.4-.4,1.2ZM645,1034.1c-.9,9.8-8.7,17.6-18.5,18.5h-1.3c0,.1,1.4-3.8,1.4-3.8,2.5-6.8,7.8-12.1,14.6-14.6l3.9-1.4v1.3ZM664.1,1003.6c1.7,9.7-3.8,19.3-13.1,22.7l-1.2.4.4-4.2c.7-7.2,4.4-13.7,10.3-17.8l3.4-2.4.2,1.3ZM667.9,994.6l-1.1.7-.7-4.1c-1.2-7.1.7-14.4,5.3-19.9l2.7-3.2.5,1.2c4.1,9,1.3,19.6-6.8,25.3Z"/>
    <g>
      <g>
        <path class="st2" d="M-546.7,908.9c5.9,0,10.5,1.4,13.7,4.1,3.2,2.7,4.9,6.3,4.9,10.8s-1.6,8.9-4.8,11.4c-3.2,2.6-7.7,3.9-13.7,3.9l-1.4.8h-8.6v16.5h-14.4v-47.5h24.3ZM-549.1,929.9c2.1,0,3.6-.4,4.6-1.2,1-.8,1.5-2.1,1.5-3.9s-.5-3.1-1.5-4c-1-.8-2.6-1.2-4.6-1.2h-7.6v10.3h7.6ZM-540.3,933l15,23.4h-16.1l-11.6-20.8,12.7-2.6Z"/>
        <path class="st2" d="M-497.8,908.9c4.1,0,7.5.6,10.4,1.9,2.9,1.3,5,3.1,6.6,5.5,1.5,2.4,2.3,5.4,2.3,8.9s-.8,6.5-2.3,8.9c-1.5,2.4-3.7,4.3-6.6,5.5-2.9,1.3-6.3,1.9-10.4,1.9h-8.9v14.8h-14.7v-47.5h23.6ZM-500.2,930.9c2.2,0,3.8-.5,5-1.4,1.2-.9,1.8-2.4,1.8-4.3s-.6-3.3-1.8-4.3c-1.2-.9-2.9-1.4-5-1.4h-6.6v11.4h6.6Z"/>
        <path class="st2" d="M-459,908.9v47.5h-14.7v-47.5h14.7ZM-428.5,908.9l-22.8,28.6-.7-2.8-10.9,14-3.2-10.9,21.7-28.9h15.9ZM-446.1,923.9l18.7,32.5h-16.6l-13-24.3,10.9-8.1Z"/>
      </g>
      <g>
        <path class="st2" d="M-554.3,978.4c0-1-.2-1.8-.6-2.5-.4-.7-.9-1.3-1.5-1.8-.6-.5-1.4-.8-2.2-1.1s-1.7-.4-2.6-.4-1.6.1-2.3.3c-.7.2-1.4.5-2,.9-.6.4-1,.9-1.4,1.4-.3.6-.5,1.2-.5,2v.3c0,.8.2,1.5.5,2.1s.8,1.1,1.5,1.5c.7.4,1.5.7,2.5,1,1,.3,2.1.5,3.4.7,3.1.5,5.3,1.4,6.8,2.7,1.5,1.3,2.2,3.1,2.2,5.4v.5c0,1.3-.2,2.4-.7,3.5-.4,1-1.1,2-1.9,2.7-.9.8-1.9,1.3-3.2,1.8-1.3.4-2.7.6-4.4.6s-3.5-.3-5-.8c-1.4-.5-2.6-1.3-3.6-2.3-1-1-1.7-2.1-2.2-3.4-.5-1.3-.8-2.7-.8-4.3v-1.3h3.5v1c0,2.6.7,4.5,2.1,5.8,1.4,1.3,3.4,1.9,5.9,1.9s3.8-.5,4.9-1.4c1.1-1,1.7-2.2,1.7-3.8v-.3c0-1.5-.6-2.7-1.7-3.5s-3-1.4-5.5-1.8c-1.5-.2-2.8-.5-4-.9-1.2-.4-2.2-.9-3-1.6-.8-.7-1.5-1.4-1.9-2.4-.4-.9-.7-2-.7-3.3v-.5c0-1.1.2-2.2.7-3.2.5-1,1.1-1.8,2-2.5.9-.7,1.9-1.2,3.1-1.6,1.2-.4,2.5-.6,3.9-.6s3.1.2,4.4.7c1.3.5,2.4,1.1,3.3,1.9.9.8,1.6,1.7,2,2.8.5,1.1.7,2.2.7,3.4v1.8h-3.5v-1.5Z"/>
        <path class="st2" d="M-547.4,970h20.7v3.3h-8.6v26.1h-3.5v-26.1h-8.6v-3.3Z"/>
        <path class="st2" d="M-518.9,970v19.5c0,2.4.6,4.2,1.7,5.4,1.1,1.2,2.7,1.8,4.9,1.8s3.8-.6,4.9-1.8c1.1-1.2,1.7-3,1.7-5.4v-19.5h3.5v19.5c0,3.4-.9,6-2.7,7.8-1.8,1.8-4.3,2.7-7.4,2.7s-5.6-.9-7.4-2.7c-1.8-1.8-2.7-4.4-2.7-7.8v-19.5h3.5Z"/>
        <path class="st2" d="M-497.8,970h9.7c3.6,0,6.3.9,8,2.6s2.5,4.5,2.5,8.3v7.6c0,3.8-.8,6.6-2.5,8.3s-4.3,2.6-8,2.6h-9.7v-3.3h2.5v-22.8h-2.5v-3.3ZM-488.6,996.1c1.3,0,2.4-.1,3.3-.4.9-.3,1.7-.7,2.3-1.3.6-.6,1.1-1.4,1.4-2.4.3-1,.4-2.3.4-3.8v-7.1c0-1.5-.1-2.8-.4-3.8s-.7-1.8-1.4-2.4c-.6-.6-1.4-1-2.3-1.3-.9-.3-2.1-.4-3.3-.4h-3.1v22.8h3.1Z"/>
        <path class="st2" d="M-473.9,970h18.6v3.3h-7.6v22.8h7.6v3.3h-18.6v-3.3h7.6v-22.8h-7.6v-3.3Z"/>
        <path class="st2" d="M-451.5,981.4c0-3.8.9-6.8,2.7-8.9,1.8-2.1,4.4-3.2,7.6-3.2s5.8,1,7.6,3.2c1.8,2.1,2.7,5.1,2.7,8.9v6.6c0,3.9-.9,6.9-2.7,8.9-1.8,2-4.4,3.1-7.6,3.1s-5.8-1-7.6-3.1c-1.8-2-2.7-5-2.7-8.9v-6.6ZM-441.2,996.7c2.3,0,4-.8,5.1-2.3,1.1-1.6,1.7-3.8,1.7-6.7v-6c0-2.7-.6-4.9-1.7-6.5-1.1-1.7-2.8-2.5-5.1-2.5s-4,.8-5.1,2.5c-1.1,1.7-1.7,3.8-1.7,6.5v6c0,2.9.6,5.1,1.7,6.7,1.1,1.6,2.8,2.3,5.1,2.3Z"/>
      </g>
    </g>
    <g>
      <g>
        <path class="st2" d="M-26.6,904.5c5.9,0,10.5,1.4,13.7,4.1,3.2,2.7,4.9,6.3,4.9,10.8s-1.6,8.9-4.8,11.4c-3.2,2.6-7.7,3.9-13.7,3.9l-1.4.8h-8.6v16.5h-14.4v-47.5h24.3ZM-28.9,925.5c2.1,0,3.6-.4,4.6-1.2,1-.8,1.5-2.1,1.5-3.9s-.5-3.1-1.5-4c-1-.8-2.6-1.2-4.6-1.2h-7.6v10.3h7.6ZM-20.2,928.6l15,23.4h-16.1l-11.6-20.8,12.7-2.6Z"/>
        <path class="st2" d="M22.3,904.5c4.1,0,7.5.6,10.4,1.9,2.9,1.3,5,3.1,6.6,5.5,1.5,2.4,2.3,5.4,2.3,8.9s-.8,6.5-2.3,8.9c-1.5,2.4-3.7,4.3-6.6,5.5-2.9,1.3-6.3,1.9-10.4,1.9h-8.9v14.8H-1.3v-47.5h23.6ZM20,926.6c2.2,0,3.8-.5,5-1.4,1.2-.9,1.8-2.4,1.8-4.3s-.6-3.3-1.8-4.3c-1.2-.9-2.9-1.4-5-1.4h-6.6v11.4h6.6Z"/>
        <path class="st2" d="M61.1,904.5v47.5h-14.7v-47.5h14.7ZM91.6,904.5l-22.8,28.6-.7-2.8-10.9,14-3.2-10.9,21.7-28.9h15.9ZM74,919.6l18.7,32.5h-16.6l-13-24.3,10.9-8.1Z"/>
      </g>
      <g>
        <path class="st2" d="M-34.2,974.1c0-1-.2-1.8-.6-2.5-.4-.7-.9-1.3-1.5-1.8-.6-.5-1.4-.8-2.2-1.1s-1.7-.4-2.6-.4-1.6.1-2.3.3c-.7.2-1.4.5-2,.9-.6.4-1,.9-1.4,1.4-.3.6-.5,1.2-.5,2v.3c0,.8.2,1.5.5,2.1s.8,1.1,1.5,1.5c.7.4,1.5.7,2.5,1,1,.3,2.1.5,3.4.7,3.1.5,5.3,1.4,6.8,2.7,1.5,1.3,2.2,3.1,2.2,5.4v.5c0,1.3-.2,2.4-.7,3.5-.4,1-1.1,2-1.9,2.7-.9.8-1.9,1.3-3.2,1.8-1.3.4-2.7.6-4.4.6s-3.5-.3-5-.8c-1.4-.5-2.6-1.3-3.6-2.3-1-1-1.7-2.1-2.2-3.4-.5-1.3-.8-2.7-.8-4.3v-1.3h3.5v1c0,2.6.7,4.5,2.1,5.8,1.4,1.3,3.4,1.9,5.9,1.9s3.8-.5,4.9-1.4c1.1-1,1.7-2.2,1.7-3.8v-.3c0-1.5-.6-2.7-1.7-3.5s-3-1.4-5.5-1.8c-1.5-.2-2.8-.5-4-.9-1.2-.4-2.2-.9-3-1.6-.8-.7-1.5-1.4-1.9-2.4-.4-.9-.7-2-.7-3.3v-.5c0-1.1.2-2.2.7-3.2.5-1,1.1-1.8,2-2.5.9-.7,1.9-1.2,3.1-1.6,1.2-.4,2.5-.6,3.9-.6s3.1.2,4.4.7c1.3.5,2.4,1.1,3.3,1.9.9.8,1.6,1.7,2,2.8.5,1.1.7,2.2.7,3.4v1.8h-3.5v-1.5Z"/>
        <path class="st2" d="M-27.2,965.6H-6.6v3.3h-8.6v26.1h-3.5v-26.1h-8.6v-3.3Z"/>
        <path class="st2" d="M1.2,965.6v19.5c0,2.4.6,4.2,1.7,5.4,1.1,1.2,2.7,1.8,4.9,1.8s3.8-.6,4.9-1.8c1.1-1.2,1.7-3,1.7-5.4v-19.5h3.5v19.5c0,3.4-.9,6-2.7,7.8-1.8,1.8-4.3,2.7-7.4,2.7s-5.6-.9-7.4-2.7c-1.8-1.8-2.7-4.4-2.7-7.8v-19.5H1.2Z"/>
        <path class="st2" d="M22.4,965.6h9.7c3.6,0,6.3.9,8,2.6s2.5,4.5,2.5,8.3v7.6c0,3.8-.8,6.6-2.5,8.3s-4.3,2.6-8,2.6h-9.7v-3.3h2.5v-22.8h-2.5v-3.3ZM31.5,991.7c1.3,0,2.4-.1,3.3-.4.9-.3,1.7-.7,2.3-1.3.6-.6,1.1-1.4,1.4-2.4.3-1,.4-2.3.4-3.8v-7.1c0-1.5-.1-2.8-.4-3.8s-.7-1.8-1.4-2.4c-.6-.6-1.4-1-2.3-1.3-.9-.3-2.1-.4-3.3-.4h-3.1v22.8h3.1Z"/>
        <path class="st2" d="M46.3,965.6h18.6v3.3h-7.6v22.8h7.6v3.3h-18.6v-3.3h7.6v-22.8h-7.6v-3.3Z"/>
        <path class="st2" d="M68.6,977c0-3.8.9-6.8,2.7-8.9,1.8-2.1,4.4-3.2,7.6-3.2s5.8,1,7.6,3.2c1.8,2.1,2.7,5.1,2.7,8.9v6.6c0,3.9-.9,6.9-2.7,8.9-1.8,2-4.4,3.1-7.6,3.1s-5.8-1-7.6-3.1c-1.8-2-2.7-5-2.7-8.9v-6.6ZM78.9,992.3c2.3,0,4-.8,5.1-2.3,1.1-1.6,1.7-3.8,1.7-6.7v-6c0-2.7-.6-4.9-1.7-6.5-1.1-1.7-2.8-2.5-5.1-2.5s-4,.8-5.1,2.5c-1.1,1.7-1.7,3.8-1.7,6.5v6c0,2.9.6,5.1,1.7,6.7,1.1,1.6,2.8,2.3,5.1,2.3Z"/>
      </g>
    </g>
    <text>
      <textPath startOffset="69%" xlink:href="#path"><tspan class="st3"><tspan x="0" y="0" xml:space="preserve">WEB • DESIGN • DEVELOPMENT   • BY YESSI KENNEY •</tspan></tspan>
      </textPath></text>
    <g>
      <g>
        <path class="st2" d="M491.9,900.9c5.9,0,10.5,1.4,13.7,4.1,3.2,2.7,4.9,6.3,4.9,10.8s-1.6,8.9-4.8,11.4c-3.2,2.6-7.7,3.9-13.7,3.9l-1.4.8h-8.6v16.5h-14.4v-47.5h24.3ZM489.5,921.9c2.1,0,3.6-.4,4.6-1.2,1-.8,1.5-2.1,1.5-3.9s-.5-3.1-1.5-4c-1-.8-2.6-1.2-4.6-1.2h-7.6v10.3h7.6ZM498.2,925l15,23.4h-16.1l-11.6-20.8,12.7-2.6Z"/>
        <path class="st2" d="M540.8,900.9c4.1,0,7.5.6,10.4,1.9,2.9,1.3,5,3.1,6.6,5.5,1.5,2.4,2.3,5.4,2.3,8.9s-.8,6.5-2.3,8.9c-1.5,2.4-3.7,4.3-6.6,5.5-2.9,1.3-6.3,1.9-10.4,1.9h-8.9v14.8h-14.7v-47.5h23.6ZM538.4,922.9c2.2,0,3.8-.5,5-1.4,1.2-.9,1.8-2.4,1.8-4.3s-.6-3.3-1.8-4.3c-1.2-.9-2.9-1.4-5-1.4h-6.6v11.4h6.6Z"/>
        <path class="st2" d="M579.6,900.9v47.5h-14.7v-47.5h14.7ZM610,900.9l-22.8,28.6-.7-2.8-10.9,14-3.2-10.9,21.7-28.9h15.9ZM592.5,915.9l18.7,32.5h-16.6l-13-24.3,10.9-8.1Z"/>
      </g>
      <g>
        <path class="st2" d="M484.3,970.4c0-1-.2-1.8-.6-2.5-.4-.7-.9-1.3-1.5-1.8-.6-.5-1.4-.8-2.2-1.1s-1.7-.4-2.6-.4-1.6.1-2.3.3c-.7.2-1.4.5-2,.9-.6.4-1,.9-1.4,1.4-.3.6-.5,1.2-.5,2v.3c0,.8.2,1.5.5,2.1s.8,1.1,1.5,1.5c.7.4,1.5.7,2.5,1,1,.3,2.1.5,3.4.7,3.1.5,5.3,1.4,6.8,2.7,1.5,1.3,2.2,3.1,2.2,5.4v.5c0,1.3-.2,2.4-.7,3.5-.4,1-1.1,2-1.9,2.7-.9.8-1.9,1.3-3.2,1.8-1.3.4-2.7.6-4.4.6s-3.5-.3-5-.8c-1.4-.5-2.6-1.3-3.6-2.3-1-1-1.7-2.1-2.2-3.4-.5-1.3-.8-2.7-.8-4.3v-1.3h3.5v1c0,2.6.7,4.5,2.1,5.8,1.4,1.3,3.4,1.9,5.9,1.9s3.8-.5,4.9-1.4c1.1-1,1.7-2.2,1.7-3.8v-.3c0-1.5-.6-2.7-1.7-3.5s-3-1.4-5.5-1.8c-1.5-.2-2.8-.5-4-.9-1.2-.4-2.2-.9-3-1.6-.8-.7-1.5-1.4-1.9-2.4-.4-.9-.7-2-.7-3.3v-.5c0-1.1.2-2.2.7-3.2.5-1,1.1-1.8,2-2.5.9-.7,1.9-1.2,3.1-1.6,1.2-.4,2.5-.6,3.9-.6s3.1.2,4.4.7c1.3.5,2.4,1.1,3.3,1.9.9.8,1.6,1.7,2,2.8.5,1.1.7,2.2.7,3.4v1.8h-3.5v-1.5Z"/>
        <path class="st2" d="M491.2,961.9h20.7v3.3h-8.6v26.1h-3.5v-26.1h-8.6v-3.3Z"/>
        <path class="st2" d="M519.7,961.9v19.5c0,2.4.6,4.2,1.7,5.4,1.1,1.2,2.7,1.8,4.9,1.8s3.8-.6,4.9-1.8c1.1-1.2,1.7-3,1.7-5.4v-19.5h3.5v19.5c0,3.4-.9,6-2.7,7.8-1.8,1.8-4.3,2.7-7.4,2.7s-5.6-.9-7.4-2.7c-1.8-1.8-2.7-4.4-2.7-7.8v-19.5h3.5Z"/>
        <path class="st2" d="M540.8,961.9h9.7c3.6,0,6.3.9,8,2.6s2.5,4.5,2.5,8.3v7.6c0,3.8-.8,6.6-2.5,8.3s-4.3,2.6-8,2.6h-9.7v-3.3h2.5v-22.8h-2.5v-3.3ZM550,988.1c1.3,0,2.4-.1,3.3-.4.9-.3,1.7-.7,2.3-1.3.6-.6,1.1-1.4,1.4-2.4.3-1,.4-2.3.4-3.8v-7.1c0-1.5-.1-2.8-.4-3.8s-.7-1.8-1.4-2.4c-.6-.6-1.4-1-2.3-1.3-.9-.3-2.1-.4-3.3-.4h-3.1v22.8h3.1Z"/>
        <path class="st2" d="M564.7,961.9h18.6v3.3h-7.6v22.8h7.6v3.3h-18.6v-3.3h7.6v-22.8h-7.6v-3.3Z"/>
        <path class="st2" d="M587,973.4c0-3.8.9-6.8,2.7-8.9,1.8-2.1,4.4-3.2,7.6-3.2s5.8,1,7.6,3.2c1.8,2.1,2.7,5.1,2.7,8.9v6.6c0,3.9-.9,6.9-2.7,8.9-1.8,2-4.4,3.1-7.6,3.1s-5.8-1-7.6-3.1c-1.8-2-2.7-5-2.7-8.9v-6.6ZM597.4,988.6c2.3,0,4-.8,5.1-2.3,1.1-1.6,1.7-3.8,1.7-6.7v-6c0-2.7-.6-4.9-1.7-6.5-1.1-1.7-2.8-2.5-5.1-2.5s-4,.8-5.1,2.5c-1.1,1.7-1.7,3.8-1.7,6.5v6c0,2.9.6,5.1,1.7,6.7,1.1,1.6,2.8,2.3,5.1,2.3Z"/>
      </g>
    </g>
  </g>
  <g id="Layer_2">
    <circle class="st10" cx="946.1" cy="782.8" r="250"/>
    <circle class="st9" cx="805.3" cy="261.5" r="250"/>
    <path class="st1" d="M1032,291.3l3.4-4.1c12.4-14.9,12.4-36.6,0-51.5l-3.4-4.1,2.2-4.8c8.2-17.6,2.5-38.6-13.3-49.8l-4.3-3.1.9-5.2c3.3-19.1-7.5-37.9-25.8-44.6l-5-1.8-.5-5.3c-1.8-19.4-17.1-34.7-36.4-36.4l-5.3-.5-1.8-5c-5.9-16-21.1-26.4-37.8-26.4s-4.6.2-6.9.6l-5.2.9-3.1-4.3c-7.7-11-20.2-17.1-32.9-17.1s-11.4,1.2-16.9,3.7l-4.8,2.2-4.1-3.4c-7.5-6.2-16.6-9.3-25.8-9.3s-18.3,3.1-25.8,9.3l-4.1,3.4-4.8-2.2c-5.4-2.5-11.2-3.7-16.9-3.7-12.8,0-25.2,6.1-32.9,17.1l-3.1,4.3-5.2-.9c-2.3-.4-4.6-.6-6.9-.6-16.6,0-31.9,10.3-37.8,26.4l-1.8,5-5.3.5c-19.4,1.8-34.7,17.1-36.4,36.4l-.5,5.3-5,1.8c-18.2,6.7-29.1,25.5-25.8,44.6l.9,5.2-4.3,3.1c-15.9,11.2-21.5,32.1-13.3,49.8l2.2,4.8-3.4,4.1c-12.4,14.9-12.4,36.6,0,51.5l3.4,4.1-2.2,4.8c-8.2,17.6-2.5,38.6,13.3,49.8l4.3,3.1-.9,5.2c-3.3,19.1,7.5,37.9,25.8,44.6l5,1.8.5,5.3c1.8,19.4,17.1,34.7,36.4,36.4l5.3.5,1.8,5c5.9,16,21.1,26.4,37.8,26.4s4.6-.2,6.9-.6l5.2-.9,3.1,4.3c7.7,11,20.2,17.1,32.9,17.1s11.4-1.2,16.9-3.7l4.8-2.2,4.1,3.4c7.5,6.2,16.6,9.3,25.8,9.3s18.3-3.1,25.8-9.3l4.1-3.4,4.8,2.2c5.4,2.5,11.2,3.7,16.9,3.7,12.8,0,25.2-6.1,32.9-17.1l3.1-4.3,5.2.9c2.3.4,4.6.6,6.9.6,16.6,0,31.9-10.3,37.8-26.4l1.8-5,5.3-.5c19.4-1.8,34.7-17.1,36.4-36.4l.5-5.3,5-1.8c18.2-6.7,29.1-25.5,25.8-44.6l-.9-5.2,4.3-3.1c15.9-11.2,21.5-32.1,13.3-49.8l-2.2-4.8ZM1030.2,240c10.4,12.4,10.4,30.5,0,43l-1.4,1.6-2.9-6.2c-5-10.7-5-23.1,0-33.8l2.9-6.2,1.4,1.6ZM1007.5,336.1l1.7,9.9-8.2,5.8c-11.3,7.9-18.5,20.4-19.7,34.1l-.9,10-9.4,3.5c-12.9,4.8-23.1,14.9-27.9,27.9l-3.5,9.4-10,.9c-13.7,1.2-26.2,8.4-34.1,19.7l-5.8,8.2-9.9-1.7c-2.6-.5-5.3-.7-8-.7-11,0-21.6,3.9-30.1,10.9l-7.7,6.4-9.1-4.2c-6.2-2.9-12.8-4.3-19.7-4.3s-13.5,1.5-19.7,4.3l-9.1,4.2-7.7-6.4c-8.4-7-19.1-10.9-30.1-10.9s-5.4.2-8,.7l-9.9,1.7-5.8-8.2c-7.9-11.3-20.4-18.5-34.1-19.7l-10-.9-3.5-9.4c-4.8-12.9-14.9-23.1-27.9-27.9l-9.4-3.5-.9-10c-1.2-13.7-8.4-26.2-19.7-34.1l-8.2-5.8,1.7-9.9c2.3-13.6-1.4-27.5-10.2-38.1l-6.4-7.7,4.2-9.1c5.8-12.5,5.8-26.9,0-39.4l-4.2-9.1,6.4-7.7c8.8-10.6,12.5-24.5,10.2-38.1l-1.7-9.9,8.2-5.8c11.3-7.9,18.5-20.4,19.7-34.1l.9-10,9.4-3.5c12.9-4.8,23.1-14.9,27.9-27.9l3.5-9.4,10-.9c13.7-1.2,26.2-8.4,34.1-19.7l5.8-8.2,9.9,1.7c2.6.5,5.3.7,8,.7,11,0,21.6-3.9,30.1-10.9l7.7-6.4,9.1,4.2c6.2,2.9,12.8,4.3,19.7,4.3s13.5-1.5,19.7-4.3l9.1-4.2,7.7,6.4c8.4,7,19.1,10.9,30.1,10.9s5.4-.2,8-.7l9.9-1.7,5.8,8.2c7.9,11.3,20.4,18.5,34.1,19.7l10,.9,3.5,9.4c4.8,12.9,14.9,23.1,27.9,27.9l9.4,3.5.9,10c1.2,13.7,8.4,26.2,19.7,34.1l8.2,5.8-1.7,9.9c-2.3,13.6,1.4,27.5,10.2,38.1l6.4,7.7-4.2,9.1c-5.8,12.5-5.8,26.9,0,39.4l4.2,9.1-6.4,7.7c-8.8,10.6-12.5,24.5-10.2,38.1ZM1017,182.5c13.2,9.3,17.9,26.8,11.1,41.5l-.9,1.9-4.4-5.3c-7.6-9.1-10.8-21-8.7-32.6l1.2-6.8,1.7,1.2ZM989.4,130.4c15.2,5.6,24.2,21.2,21.5,37.2l-.4,2.1-5.6-4c-9.6-6.8-15.8-17.5-16.9-29.2l-.6-6.8,2,.7ZM949.2,87.3c16.1,1.5,28.9,14.2,30.4,30.4l.2,2.1-6.4-2.4c-11.1-4.1-19.8-12.8-23.9-23.9l-2.4-6.4,2.1.2ZM899.2,56c1.9-.3,3.8-.5,5.7-.5,14,0,26.6,8.8,31.5,22l.7,2-6.8-.6c-11.8-1.1-22.4-7.2-29.2-16.9l-4-5.6,2.1-.4ZM842.8,38.7c4.4-2.1,9.2-3.1,14.1-3.1,10.9,0,21.2,5.3,27.4,14.2l1.2,1.7-6.8,1.2c-2.3.4-4.6.6-6.9.6-9.3,0-18.5-3.3-25.8-9.3l-5.3-4.4,1.9-.9ZM783.8,36.6c6-5,13.6-7.8,21.5-7.8s15.5,2.8,21.5,7.8l1.6,1.4-6.2,2.9c-5.4,2.5-11.1,3.7-16.9,3.7s-11.5-1.2-16.9-3.7l-6.2-2.9,1.6-1.4ZM726.3,49.8c6.3-8.9,16.5-14.2,27.4-14.2,4.9,0,9.6,1,14.1,3.1l1.9.9-5.3,4.4c-7.3,6.1-16.4,9.3-25.8,9.3s-4.6-.2-6.9-.6l-6.8-1.2,1.2-1.7ZM674.2,77.4c4.8-13.1,17.5-22,31.5-22,1.9,0,3.8.2,5.7.5l2.1.4-4,5.6c-6.8,9.6-17.5,15.8-29.2,16.9l-6.8.6.7-2ZM631.1,117.6c1.5-16.1,14.2-28.9,30.4-30.4l2.1-.2-2.4,6.4c-4.1,11.1-12.8,19.8-23.9,23.9l-6.4,2.4.2-2.1ZM599.8,167.6c-2.8-16,6.3-31.6,21.5-37.2l2-.7-.6,6.8c-1.1,11.8-7.2,22.4-16.9,29.2l-5.6,4-.4-2.1ZM582.5,224c-6.8-14.7-2.1-32.2,11.1-41.5l1.7-1.2,1.2,6.8c2,11.6-1.2,23.6-8.7,32.6l-4.4,5.3-.9-1.9ZM580.4,283c-10.4-12.4-10.4-30.5,0-43l1.4-1.6,2.9,6.2c5,10.7,5,23.1,0,33.8l-2.9,6.2-1.4-1.6ZM593.6,340.5c-13.2-9.3-17.9-26.8-11.1-41.5l.9-1.9,4.4,5.3c7.6,9.1,10.8,21,8.7,32.6l-1.2,6.8-1.7-1.2ZM621.2,392.6c-15.2-5.6-24.2-21.2-21.5-37.2l.4-2.1,5.6,4c9.6,6.8,15.8,17.5,16.9,29.2l.6,6.8-2-.7ZM661.4,435.7c-16.1-1.5-28.9-14.2-30.4-30.4l-.2-2.1,6.4,2.4c11.1,4.1,19.8,12.8,23.9,23.9l2.4,6.4-2.1-.2ZM711.4,467c-1.9.3-3.8.5-5.7.5-14,0-26.6-8.8-31.5-22l-.7-2,6.8.6c11.8,1.1,22.4,7.2,29.2,16.9l4,5.6-2.1.4ZM767.8,484.3c-4.4,2.1-9.2,3.1-14.1,3.1-10.9,0-21.2-5.3-27.4-14.2l-1.2-1.7,6.8-1.2c2.3-.4,4.6-.6,6.9-.6,9.3,0,18.5,3.3,25.8,9.3l5.3,4.4-1.9.9ZM826.8,486.4c-6,5-13.6,7.8-21.5,7.8s-15.5-2.8-21.5-7.8l-1.6-1.4,6.2-2.9c5.4-2.5,11.1-3.7,16.9-3.7s11.5,1.2,16.9,3.7l6.2,2.9-1.6,1.4ZM884.3,473.2c-6.3,8.9-16.5,14.2-27.4,14.2s-9.6-1-14.1-3.1l-1.9-.9,5.3-4.4c7.3-6.1,16.4-9.3,25.8-9.3s4.6.2,6.9.6l6.8,1.2-1.2,1.7ZM936.4,445.6c-4.8,13.1-17.5,22-31.5,22s-3.8-.2-5.7-.5l-2.1-.4,4-5.6c6.8-9.6,17.5-15.8,29.2-16.9l6.8-.6-.7,2ZM979.5,405.4c-1.5,16.1-14.2,28.9-30.4,30.4l-2.1.2,2.4-6.4c4.1-11.1,12.8-19.8,23.9-23.9l6.4-2.4-.2,2.1ZM1010.8,355.4c2.8,16-6.3,31.6-21.5,37.2l-2,.7.6-6.8c1.1-11.8,7.2-22.4,16.9-29.2l5.6-4,.4,2.1ZM1017,340.5l-1.7,1.2-1.2-6.8c-2-11.6,1.2-23.6,8.7-32.6l4.4-5.3.9,1.9c6.8,14.7,2.1,32.2-11.1,41.5Z"/>
    <path class="st11" d="M946.1,926.7c-88.4,0-160-71.6-160-160,0-88.4,71.6-160,160-160s160,71.6,160,160-71.6,160-160,160Z"/>
    <path class="st6" d="M52.7,228.5l2.2-93.7-38.3-21.7,66.9-28.4,32.5,26.1-2.6,91.2,44,16.9.6-84.2-29-21.7,57.7-28.4,32.5,26.1-1.9,93.4,13.4,59.3-90.9,59-94.4-48.1,50.7-26.8-43.7-19.1ZM115.2,252.7l56.7,32.8-14.3-56.4-42.4,23.6Z"/>
    <path class="st7" d="M324.9,314.9l50.7-28.4,60.3,40.2v23.9l-54.2,12.4,79.4,70.8-61.8,26.5-74-88.6-.6,38.9,29,21.7-57.7,28.1-32.2-25.8,1.6-172.8-9.2-55.2,8.6-2.9,20.4,36.3,42.4-22-2.6,96.9ZM325.2,362.7l44.3-17.2-44-15.9-.3,33.2Z"/>
  </g>
</svg>